# xmcd
# 
# Track frame offsets:
#     150
#     3978
#     17085
#     34127
#     45315
#     65206
#     82194
#     99360
#     121179
#     131639
#     145629
#     166857
#     190236
#     212628
#     234025
#     256599
#     276275
# 
# Disc length: 3805
# 
# Revision: 1
# Processed by: cddbd v1.5.2PL0 Copyright (c) Steve Scherf et al.
# Submitted via: fre:ac v1.0.17
# 
DISCID=db0edb11
DTITLE=Stephen King - The Colorado Kid
DYEAR=2005
DGENRE=Audio Book
TTITLE0=001
TTITLE1=002
TTITLE2=003
TTITLE3=004
TTITLE4=005
TTITLE5=006
TTITLE6=007
TTITLE7=008
TTITLE8=009
TTITLE9=010
TTITLE10=011
TTITLE11=012
TTITLE12=013
TTITLE13=014
TTITLE14=015
TTITLE15=016
TTITLE16=017
EXTD=
EXTT0=
EXTT1=
EXTT2=
EXTT3=
EXTT4=
EXTT5=
EXTT6=
EXTT7=
EXTT8=
EXTT9=
EXTT10=
EXTT11=
EXTT12=
EXTT13=
EXTT14=
EXTT15=
EXTT16=
PLAYORDER=
